<svg version="1.1" id="Layer_1" xmlns="http://www.w3.org/2000/svg" width="137" height="23" x="0" y="0" viewBox="0 0 174.494 24.641" style="overflow:hidden" xml:space="preserve"><style>.st0{fill:#ff5e44}</style><path class="st0" d="M6.206 5.728h1.202v2.024H6.022c-1.226 0-2.179.376-2.858 1.128-.679.753-1.018 1.79-1.018 3.116v7.371H0V5.801h1.52l.344 2.061c.982-1.423 2.429-2.134 4.342-2.134zM21.943 12.646c0 .245-.013.498-.037.76H10.34c.163 1.26.68 2.27 1.551 3.03.87.76 1.944 1.14 3.22 1.14.932 0 1.762-.206 2.49-.619a4.576 4.576 0 0 0 1.73-1.723h2.256c-.58 1.398-1.437 2.486-2.57 3.262-1.132.777-2.434 1.166-3.906 1.166-1.292 0-2.468-.307-3.526-.92s-1.89-1.46-2.49-2.54c-.601-1.079-.902-2.285-.902-3.618 0-1.324.3-2.528.902-3.612a6.566 6.566 0 0 1 2.49-2.545c1.058-.613 2.234-.92 3.526-.92 1.341 0 2.534.319 3.582.957a6.428 6.428 0 0 1 2.41 2.582c.56 1.083.84 2.283.84 3.6zM15.111 7.53c-1.227 0-2.265.354-3.115 1.061-.851.707-1.386 1.654-1.607 2.84h9.42c-.23-1.203-.767-2.153-1.613-2.852-.847-.7-1.875-1.05-3.085-1.05zM29.684 19.662c-1.603 0-2.891-.401-3.864-1.202-.973-.802-1.488-1.885-1.545-3.25h2.084c.058.784.395 1.394 1.012 1.827.618.433 1.413.65 2.386.65.94 0 1.707-.188 2.3-.564.593-.376.89-.892.89-1.546 0-.253-.042-.482-.123-.687a1.259 1.259 0 0 0-.393-.521 4.307 4.307 0 0 0-.54-.368 3.144 3.144 0 0 0-.741-.276 15.137 15.137 0 0 0-.81-.19 34.1 34.1 0 0 0-.914-.166 23.18 23.18 0 0 1-.705-.122 25.187 25.187 0 0 1-.687-.148 7.435 7.435 0 0 1-.693-.183 35.13 35.13 0 0 1-.638-.221 2.519 2.519 0 0 1-.607-.295c-.152-.106-.32-.23-.509-.374a1.87 1.87 0 0 1-.448-.472 6.58 6.58 0 0 1-.325-.57 2.468 2.468 0 0 1-.227-.706 4.994 4.994 0 0 1-.067-.846c0-1.17.47-2.116 1.41-2.84.94-.723 2.175-1.085 3.705-1.085 1.528 0 2.753.378 3.673 1.135.92.756 1.4 1.776 1.441 3.06h-2.023c-.041-.736-.336-1.302-.884-1.699-.548-.396-1.3-.595-2.256-.595-.917 0-1.644.178-2.184.534-.54.356-.81.828-.81 1.417 0 .229.038.435.111.619.074.184.196.341.368.472.172.131.343.241.515.331.172.09.409.172.712.246.302.073.56.13.773.171.212.041.51.09.894.148 1.342.22 2.302.453 2.883.699 1.341.564 2.069 1.553 2.183 2.968.017.155.025.31.025.466 0 1.268-.491 2.281-1.472 3.042-.981.76-2.281 1.14-3.9 1.14zM44.228 19.662c-1.824 0-3.281-.548-4.373-1.644-1.092-1.096-1.637-2.555-1.637-4.379V5.801h2.134v7.495c0 1.333.347 2.384 1.042 3.152.695.769 1.64 1.153 2.834 1.153 1.202 0 2.148-.386 2.839-1.16.691-.772 1.036-1.82 1.036-3.145V5.8h2.135v7.838c0 1.824-.544 3.283-1.632 4.379-1.087 1.096-2.547 1.644-4.378 1.644zM114.857 16.451c-1.349-.282-2.459-1.471-2.647-2.836h8.4c1.177 0 2.06-1.06 1.873-2.22-.317-1.97-1.46-3.815-3.143-4.895-2.311-1.482-5.508-1.435-7.775.114l-.03.02c-1.978 1.368-3.137 3.81-3.022 6.203.119 2.464 1.335 4.735 3.515 5.993a7.178 7.178 0 0 0 6.057.482c1.865-.712 3.382-2.259 4.087-4.125h-3.955c-.772.995-2.123 1.523-3.36 1.264zm-1.369-7.227c.564-.45 1.251-.675 2.06-.675.827 0 1.528.22 2.105.662.47.36.832.848 1.087 1.463a.312.312 0 0 1-.282.439h-6.135c.213-.81.601-1.44 1.165-1.89zM68.385 5.507c1.423 0 2.571.483 3.446 1.447.875.965 1.313 2.212 1.313 3.741v8.672h-2.122l-.012-8.01c0-1.226-.27-2.183-.81-2.87-.54-.686-1.292-1.03-2.257-1.03-.997 0-1.85.423-2.557 1.27-.708.846-1.061 1.887-1.061 3.121v7.52H62.24v-8.01c0-1.227-.27-2.184-.81-2.87-.54-.687-1.3-1.03-2.281-1.03-.998 0-1.85.422-2.557 1.269-.708.846-1.061 1.887-1.061 3.121v7.52h-2.147V5.8h1.546l.343 1.865a5.5 5.5 0 0 1 1.932-1.589 5.37 5.37 0 0 1 2.422-.57c.949 0 1.783.23 2.502.687a4.49 4.49 0 0 1 1.656 1.889 5.517 5.517 0 0 1 1.981-1.889 5.254 5.254 0 0 1 2.619-.687zM89.422 12.646c0 .245-.013.498-.037.76H77.819c.163 1.26.68 2.27 1.55 3.03.872.76 1.945 1.14 3.22 1.14.933 0 1.763-.206 2.49-.619a4.576 4.576 0 0 0 1.73-1.723h2.257c-.58 1.398-1.437 2.486-2.57 3.262-1.132.777-2.435 1.166-3.906 1.166-1.292 0-2.468-.307-3.527-.92a6.575 6.575 0 0 1-2.49-2.54c-.6-1.079-.9-2.285-.9-3.618 0-1.324.3-2.528.9-3.612a6.566 6.566 0 0 1 2.49-2.545c1.06-.613 2.235-.92 3.527-.92 1.34 0 2.534.319 3.581.957a6.428 6.428 0 0 1 2.41 2.582c.56 1.083.84 2.283.84 3.6zM82.59 7.53c-1.227 0-2.265.354-3.116 1.061-.85.707-1.386 1.654-1.606 2.84h9.42c-.23-1.203-.767-2.153-1.614-2.852-.846-.7-1.874-1.05-3.084-1.05zM105.04 5.801c-.894 0-1.704.53-2.061 1.35-1.243-1.153-2.744-1.73-4.502-1.73-1.243 0-2.381.303-3.415.908A6.584 6.584 0 0 0 92.62 8.8a6.816 6.816 0 0 0-.89 3.429c0 1.25.297 2.397.89 3.44a6.49 6.49 0 0 0 2.44 2.46c1.035.597 2.173.895 3.416.895a6.588 6.588 0 0 0 3.876-1.214v.515c0 .965-.327 1.735-.981 2.312s-1.46.864-2.416.864c-.72 0-1.384-.161-1.993-.484a2.574 2.574 0 0 1-.867-.73h-3.827a5.62 5.62 0 0 0 2.149 3.03c1.226.883 2.76 1.324 4.6 1.324 2.15 0 3.842-.611 5.077-1.833 1.235-1.223 1.852-2.893 1.852-5.01V5.8h-.907zm-3.655 8.948c-.655.667-1.48 1-2.478 1-1.006 0-1.834-.333-2.484-1-.65-.666-.975-1.506-.975-2.52 0-1.006.327-1.838.98-2.496.655-.658 1.481-.988 2.479-.988 1.006 0 1.833.33 2.483.988s.976 1.49.976 2.496c0 1.014-.327 1.854-.981 2.52zM132.741 5.482c1.537 0 2.76.514 3.667 1.54.908 1.026 1.362 2.402 1.362 4.127v8.218h-3.668v-7.629c0-2.028-.789-3.042-2.367-3.042-.94 0-1.683.317-2.226.95-.544.635-.816 1.5-.816 2.595v7.126h-3.667V5.801h1.024c.904 0 1.72.54 2.071 1.373l.13.308a5.492 5.492 0 0 1 1.957-1.466 6.037 6.037 0 0 1 2.533-.534zM140.925 19.389V5.823h1.42a2.249 2.249 0 0 1 2.248 2.249v11.317h-3.668zm3.887-17.394a1.995 1.995 0 1 1-3.991 0 1.995 1.995 0 0 1 3.99 0zM154.144 19.747c-1.913 0-3.457-.56-4.63-1.68s-1.76-2.596-1.76-4.428V5.801h3.667v7.421c0 .965.241 1.72.724 2.263.482.544 1.149.816 1.999.816s1.513-.274 1.987-.822c.474-.548.711-1.3.711-2.257V8.05a2.249 2.249 0 0 1 2.25-2.249h1.418v7.838c0 1.832-.58 3.308-1.742 4.428-1.161 1.12-2.703 1.68-4.624 1.68zM168.803 19.747c-1.701 0-3.072-.443-4.115-1.33-1.043-.887-1.568-2.059-1.576-3.515h3.569c.008.581.219 1.027.632 1.338.412.31.959.466 1.637.466.54 0 .996-.119 1.368-.356.372-.237.558-.572.558-1.006a.916.916 0 0 0-.19-.576c-.127-.164-.325-.3-.595-.411a5.301 5.301 0 0 0-.798-.258 18.752 18.752 0 0 0-1.03-.202 30.423 30.423 0 0 1-.969-.178 12.774 12.774 0 0 1-.95-.24 5.414 5.414 0 0 1-.938-.349 5.215 5.215 0 0 1-.804-.509 2.81 2.81 0 0 1-.675-.705 3.626 3.626 0 0 1-.417-.939 4.12 4.12 0 0 1-.163-1.071c-.033-1.195.43-2.333 1.326-3.124 1.027-.907 2.403-1.36 4.13-1.36 1.635 0 2.948.414 3.937 1.244.99.83 1.488 1.924 1.497 3.281h-1.88c-.72 0-1.45-.29-1.852-.888a1.307 1.307 0 0 0-.298-.314c-.355-.27-.856-.404-1.502-.404-.564 0-1.008.118-1.331.355a1.116 1.116 0 0 0-.485.945c0 .147.027.28.08.398s.147.221.282.307c.136.086.262.16.38.22.12.062.299.123.54.185.241.061.438.106.589.135l.693.128c1.317.238 2.265.483 2.845.736 1.465.655 2.196 1.8 2.196 3.435 0 1.382-.519 2.488-1.558 3.317-1.038.83-2.416 1.245-4.133 1.245z"/></svg>